<?xml version="1.0" standalone="no"?><!DOCTYPE svg PUBLIC "-//W3C//DTD SVG 1.1//EN" "http://www.w3.org/Graphics/SVG/1.1/DTD/svg11.dtd"><svg width="200" height="200" viewBox="0 0 200 200" version="1.1" xmlns="http://www.w3.org/2000/svg" xmlns:xlink="http://www.w3.org/1999/xlink"><defs><style type="text/css"><![CDATA[
@font-face { font-family: ifont; src: url("//at.alicdn.com/t/font_1442373896_4754455.eot?#iefix") format("embedded-opentype"), url("//at.alicdn.com/t/font_1442373896_4754455.woff") format("woff"), url("//at.alicdn.com/t/font_1442373896_4754455.ttf") format("truetype"), url("//at.alicdn.com/t/font_1442373896_4754455.svg#ifont") format("svg"); }

]]></style></defs><g class="transform-group"><g transform="scale(0.1953125, 0.1953125)"><path d="M678.061618 231.331669c-61.673641 0-111.677499 49.986461-111.677499 111.677499 0 61.655222 50.003857 111.677499 111.677499 111.677499s111.677499-50.022277 111.677499-111.677499C789.739117 281.317107 739.735259 231.331669 678.061618 231.331669zM678.061618 398.847917c-30.846542 0-55.838749-25.010627-55.838749-55.838749 0-30.862915 24.993231-55.837726 55.838749-55.837726s55.837726 24.974811 55.837726 55.837726C733.900368 373.83729 708.90816 398.847917 678.061618 398.847917zM901.416616 119.65417 119.675148 119.65417c-30.846542 0-55.838749 24.974811-55.838749 55.838749l0 670.063969c0 30.827099 24.993231 55.837726 55.838749 55.837726l781.741467 0c30.846542 0 55.838749-25.010627 55.838749-55.837726L957.255365 175.49292C957.255365 144.628982 932.262134 119.65417 901.416616 119.65417zM901.416616 825.852104c0 10.870582-8.706289 19.704784-19.466354 19.704784l-742.807736 0c-10.761088 0-19.466354-8.834202-19.466354-19.704784L119.676172 668.098197l187.28857-187.28857 238.48151 248.926396c10.906397 10.904351 28.591175 10.904351 39.498596 0 10.887978-10.906397 10.887978-28.574802 0-39.479153l-19.655665-20.515243 107.59246-103.69878 228.53702 219.34466L901.418662 825.852104zM901.416616 707.9703l-206.941166-198.572568c-3.654226-3.654226-8.069793-6.077416-12.734022-7.28287-9.948583-3.748371-21.600971-1.627057-29.595039 6.379291L526.668583 629.433596 327.510684 421.568385c-5.553483-5.553483-12.860912-8.272407-20.136619-8.169053-7.27673-0.103354-14.58416 2.615571-20.129456 8.169053L119.675148 589.137845 119.675148 195.196681c0-10.906397 8.706289-19.703761 19.466354-19.703761l742.807736 0c10.761088 0 19.466354 8.797363 19.466354 19.703761L901.415592 707.9703z" fill="#FFF"></path></g></g></svg>